<?xml version="1.0" encoding="UTF-8" standalone="no"?>
<!-- Created with Inkscape (http://www.inkscape.org/) -->

<svg
        height="326.54666"
        id="svg2"
        version="1.1"
        viewBox="0 0 477.73334 326.54666"
        width="477.73334"
        xml:space="preserve"
        xmlns="http://www.w3.org/2000/svg"
><defs
     id="defs6" />
  <g
      id="g8"
      transform="matrix(1.3333333,0,0,-1.3333333,0,326.54667)"><g
       id="g10"
       transform="scale(0.1)"><path
         d="M 3582.98,0 H 0 V 2449.12 H 3582.98 V 0"
         id="path12"
         style="fill:#ffffff;fill-opacity:1;fill-rule:nonzero;stroke:none" /><path
      d="M 3492.29,90.6992 V 2358.42 H 90.7031 V 90.6992 H 3492.29"
      id="path14"
      style="fill:#254aa5;fill-opacity:1;fill-rule:nonzero;stroke:none"/><path
      d="m 1082.17,1209.67 73.96,53.53 -91.44,0.18 -28.3,86.97 -28.21,-86.97 h -91.442 l 74.004,-53.75 -28.222,-86.98 73.96,53.78 73.99,-53.7 -28.3,86.94"
      id="path16"
      style="fill:#fff200;fill-opacity:1;fill-rule:nonzero;stroke:none"/><path
      d="m 1183.85,831.719 73.96,53.543 -91.44,0.179 -28.3,86.989 -28.21,-86.989 h -91.44 l 74,-53.761 -28.22,-86.969 73.94,53.777 74.01,-53.707 -28.3,86.938"
      id="path18"
      style="fill:#fff200;fill-opacity:1;fill-rule:nonzero;stroke:none"/><path
      d="m 1461.48,554.961 73.97,53.527 -91.45,0.192 -28.3,86.98 -28.2,-86.98 h -91.45 l 74.01,-53.75 -28.22,-86.989 73.96,53.789 73.99,-53.71 -28.31,86.941"
      id="path20"
      style="fill:#fff200;fill-opacity:1;fill-rule:nonzero;stroke:none"/><path
      d="m 1837.29,1965.76 73.94,53.54 -91.44,0.17 -28.29,86.98 -28.22,-86.98 h -91.44 l 74,-53.75 -28.2,-86.97 73.94,53.77 74.01,-53.69 -28.3,86.93"
      id="path22"
      style="fill:#fff200;fill-opacity:1;fill-rule:nonzero;stroke:none"/><path
      d="m 1459.75,1864.08 73.96,53.54 -91.44,0.17 -28.31,86.98 -28.22,-86.98 h -91.42 l 74,-53.75 -28.22,-86.97 73.94,53.77 74.01,-53.71 -28.3,86.95"
      id="path24"
      style="fill:#fff200;fill-opacity:1;fill-rule:nonzero;stroke:none"/><path
      d="m 1183.16,1587.21 73.95,53.51 -91.45,0.2 -28.3,86.97 -28.2,-86.97 h -91.45 l 74.01,-53.75 -28.2,-86.97 73.94,53.76 74,-53.71 -28.3,86.96"
      id="path26"
      style="fill:#fff200;fill-opacity:1;fill-rule:nonzero;stroke:none"/><path
      d="m 2593.38,1210.66 73.97,53.52 -91.46,0.19 -28.3,86.98 -28.2,-86.98 h -91.44 l 74.01,-53.77 -28.23,-86.96 73.96,53.79 73.98,-53.72 -28.29,86.95"
      id="path28"
      style="fill:#fff200;fill-opacity:1;fill-rule:nonzero;stroke:none"/><path
      d="m 1837.29,453.969 73.94,53.5 -91.43,0.211 -28.3,86.961 -28.22,-86.961 h -91.44 l 74,-53.75 -28.2,-86.989 73.94,53.789 74.01,-53.71 -28.3,86.949"
      id="path30"
      style="fill:#fff200;fill-opacity:1;fill-rule:nonzero;stroke:none"/><path
      d="m 2492.92,831.719 73.96,53.543 -91.46,0.179 -28.29,86.989 -28.2,-86.989 h -91.45 l 74,-53.761 -28.22,-86.969 73.96,53.777 74,-53.707 -28.3,86.938"
      id="path32"
      style="fill:#fff200;fill-opacity:1;fill-rule:nonzero;stroke:none"/><path
      d="m 2492.22,1587.21 73.96,53.51 -91.43,0.2 -28.31,86.97 -28.22,-86.97 h -91.45 l 74.02,-53.75 -28.21,-86.97 73.94,53.76 74,-53.71 -28.3,86.96"
      id="path34"
      style="fill:#fff200;fill-opacity:1;fill-rule:nonzero;stroke:none"/><path
      d="m 2216.48,554.961 73.97,53.527 -91.44,0.192 -28.3,86.98 -28.21,-86.98 h -91.45 l 74,-53.75 -28.21,-86.989 73.97,53.789 73.98,-53.71 -28.31,86.941"
      id="path36"
      style="fill:#fff200;fill-opacity:1;fill-rule:nonzero;stroke:none"/><path
      d="m 2214.75,1864.08 73.97,53.54 -91.46,0.17 -28.29,86.98 -28.22,-86.98 h -91.44 l 74.01,-53.75 -28.23,-86.97 73.96,53.77 74,-53.71 -28.3,86.95"
      id="path38"
      style="fill:#fff200;fill-opacity:1;fill-rule:nonzero;stroke:none"/></g></g></svg>
